<svg width="369" height="36" viewBox="0 0 369 36" fill="none" xmlns="http://www.w3.org/2000/svg">
<path d="M23.952 29.048H11.376L9.36 35H0.768L12.96 1.304H22.464L34.656 35H25.968L23.952 29.048ZM21.84 22.712L17.664 10.376L13.536 22.712H21.84ZM68.5106 35H60.3026L46.5746 14.216V35H38.3666V1.304H46.5746L60.3026 22.184V1.304H68.5106V35ZM96.8284 11.96C96.2204 10.84 95.3404 9.992 94.1884 9.416C93.0684 8.808 91.7404 8.504 90.2044 8.504C87.5484 8.504 85.4204 9.384 83.8204 11.144C82.2204 12.872 81.4204 15.192 81.4204 18.104C81.4204 21.208 82.2524 23.64 83.9164 25.4C85.6124 27.128 87.9324 27.992 90.8764 27.992C92.8924 27.992 94.5884 27.48 95.9644 26.456C97.3724 25.432 98.3964 23.96 99.0364 22.04H88.6204V15.992H106.476V23.624C105.868 25.672 104.828 27.576 103.356 29.336C101.916 31.096 100.076 32.52 97.8364 33.608C95.5964 34.696 93.0684 35.24 90.2524 35.24C86.9244 35.24 83.9484 34.52 81.3244 33.08C78.7324 31.608 76.7004 29.576 75.2284 26.984C73.7884 24.392 73.0684 21.432 73.0684 18.104C73.0684 14.776 73.7884 11.816 75.2284 9.224C76.7004 6.6 78.7324 4.568 81.3244 3.128C83.9164 1.656 86.8764 0.919998 90.2044 0.919998C94.2364 0.919998 97.6284 1.896 100.38 3.848C103.164 5.8 105.004 8.504 105.9 11.96H96.8284ZM119.087 1.304V21.464C119.087 23.48 119.583 25.032 120.575 26.12C121.567 27.208 123.023 27.752 124.943 27.752C126.863 27.752 128.335 27.208 129.359 26.12C130.383 25.032 130.895 23.48 130.895 21.464V1.304H139.103V21.416C139.103 24.424 138.463 26.968 137.183 29.048C135.903 31.128 134.175 32.696 131.999 33.752C129.855 34.808 127.455 35.336 124.799 35.336C122.143 35.336 119.759 34.824 117.647 33.8C115.567 32.744 113.919 31.176 112.703 29.096C111.487 26.984 110.879 24.424 110.879 21.416V1.304H119.087ZM153.075 28.664H163.827V35H144.867V1.304H153.075V28.664ZM188.718 29.048H176.142L174.126 35H165.534L177.726 1.304H187.23L199.422 35H190.734L188.718 29.048ZM186.606 22.712L182.43 10.376L178.302 22.712H186.606ZM220.316 35L213.308 22.28H211.34V35H203.132V1.304H216.908C219.564 1.304 221.82 1.768 223.676 2.696C225.564 3.624 226.972 4.904 227.9 6.536C228.828 8.136 229.292 9.928 229.292 11.912C229.292 14.152 228.652 16.152 227.372 17.912C226.124 19.672 224.268 20.92 221.804 21.656L229.58 35H220.316ZM211.34 16.472H216.428C217.932 16.472 219.052 16.104 219.788 15.368C220.556 14.632 220.94 13.592 220.94 12.248C220.94 10.968 220.556 9.96 219.788 9.224C219.052 8.488 217.932 8.12 216.428 8.12H211.34V16.472ZM265.017 17.72C266.969 18.136 268.537 19.112 269.721 20.648C270.905 22.152 271.497 23.88 271.497 25.832C271.497 28.648 270.505 30.888 268.521 32.552C266.569 34.184 263.833 35 260.313 35H244.617V1.304H259.785C263.209 1.304 265.881 2.088 267.801 3.656C269.753 5.224 270.729 7.352 270.729 10.04C270.729 12.024 270.201 13.672 269.145 14.984C268.121 16.296 266.745 17.208 265.017 17.72ZM252.825 14.936H258.201C259.545 14.936 260.569 14.648 261.273 14.072C262.009 13.464 262.377 12.584 262.377 11.432C262.377 10.28 262.009 9.4 261.273 8.792C260.569 8.184 259.545 7.88 258.201 7.88H252.825V14.936ZM258.873 28.376C260.249 28.376 261.305 28.072 262.041 27.464C262.809 26.824 263.193 25.912 263.193 24.728C263.193 23.544 262.793 22.616 261.993 21.944C261.225 21.272 260.153 20.936 258.777 20.936H252.825V28.376H258.873ZM284.465 28.664H295.217V35H276.257V1.304H284.465V28.664ZM315.068 35.336C311.9 35.336 308.988 34.6 306.332 33.128C303.708 31.656 301.612 29.608 300.044 26.984C298.508 24.328 297.74 21.352 297.74 18.056C297.74 14.76 298.508 11.8 300.044 9.176C301.612 6.552 303.708 4.504 306.332 3.032C308.988 1.56 311.9 0.823999 315.068 0.823999C318.236 0.823999 321.132 1.56 323.756 3.032C326.412 4.504 328.492 6.552 329.996 9.176C331.532 11.8 332.3 14.76 332.3 18.056C332.3 21.352 331.532 24.328 329.996 26.984C328.46 29.608 326.38 31.656 323.756 33.128C321.132 34.6 318.236 35.336 315.068 35.336ZM315.068 27.848C317.756 27.848 319.9 26.952 321.5 25.16C323.132 23.368 323.948 21 323.948 18.056C323.948 15.08 323.132 12.712 321.5 10.952C319.9 9.16 317.756 8.264 315.068 8.264C312.348 8.264 310.172 9.144 308.54 10.904C306.94 12.664 306.14 15.048 306.14 18.056C306.14 21.032 306.94 23.416 308.54 25.208C310.172 26.968 312.348 27.848 315.068 27.848ZM359.235 11.96C358.627 10.84 357.747 9.992 356.595 9.416C355.475 8.808 354.147 8.504 352.611 8.504C349.955 8.504 347.827 9.384 346.227 11.144C344.627 12.872 343.827 15.192 343.827 18.104C343.827 21.208 344.659 23.64 346.323 25.4C348.019 27.128 350.339 27.992 353.283 27.992C355.299 27.992 356.995 27.48 358.371 26.456C359.779 25.432 360.803 23.96 361.443 22.04H351.027V15.992H368.883V23.624C368.275 25.672 367.235 27.576 365.763 29.336C364.323 31.096 362.483 32.52 360.243 33.608C358.003 34.696 355.475 35.24 352.659 35.24C349.331 35.24 346.355 34.52 343.731 33.08C341.139 31.608 339.107 29.576 337.635 26.984C336.195 24.392 335.475 21.432 335.475 18.104C335.475 14.776 336.195 11.816 337.635 9.224C339.107 6.6 341.139 4.568 343.731 3.128C346.323 1.656 349.283 0.919998 352.611 0.919998C356.643 0.919998 360.035 1.896 362.787 3.848C365.571 5.8 367.411 8.504 368.307 11.96H359.235Z" fill="white"/>
</svg>
